<?xml version="1.0" encoding="UTF-8"?>
<!DOCTYPE svg PUBLIC "-//W3C//DTD SVG 1.1//EN" "http://www.w3.org/Graphics/SVG/1.1/DTD/svg11.dtd">
<!-- Creator: CorelDRAW 2021 (64-Bit) -->
<svg xmlns="http://www.w3.org/2000/svg" xml:space="preserve" width="19.8144mm" height="27.0813mm" version="1.1" style="shape-rendering:geometricPrecision; text-rendering:geometricPrecision; image-rendering:optimizeQuality; fill-rule:evenodd; clip-rule:evenodd"
viewBox="0 0 505.45 690.82"
 xmlns:xlink="http://www.w3.org/1999/xlink"
 xmlns:xodm="http://www.corel.com/coreldraw/odm/2003">
 <defs>
  <style type="text/css">
   <![CDATA[
    .fil1 {fill:#CF0060;fill-rule:nonzero}
    .fil0 {fill:#D9F718;fill-rule:nonzero}
   ]]>
  </style>
 </defs>
 <g id="Capa_x0020_1">
  <metadata id="CorelCorpID_0Corel-Layer"/>
  <path class="fil0" d="M285.16 0c50.19,5.02 75.4,11.59 75.4,19.95 -2.11,1.54 -6.12,2.19 -12.13,2.19 45.98,41.55 72.45,78.08 79.41,109.73 10.97,18.78 19.82,49.52 26.58,91.98 1.47,19.81 5.48,29.72 12.12,29.72 10.86,0 16.34,4.89 16.34,14.79l0 17.24c0,3.6 -1.36,5.28 -4,5.28 -5.6,0 -8.34,-0.91 -8.34,-2.58l-14.23 2.58 -20.46 0 0 4.88 14.23 2.31c3.06,0 5.91,-0.77 8.33,-2.31 14.87,2.07 22.26,4.64 22.26,7.59 2.74,-1.8 4.74,-2.7 6.22,-2.7l4.01 2.7c2.43,-1.8 5.28,-2.7 8.34,-2.7 1.9,0 3.9,2.57 6.21,7.59l0 2.31c0,2.45 -2.1,5.02 -6.21,7.46l-20.35 0 0 49.78c-5.81,82.46 -13.29,130.58 -22.57,144.34l-38.6 0 0 7.2c8.23,0 12.34,3.34 12.34,10.16 5.38,0 8.01,2.44 8.01,7.46 -21.82,64.84 -54.52,109.6 -97.97,134.18 -20.56,13.12 -49.14,19.68 -85.52,19.68l-1.9 0c-79.73,0 -134.66,-27.27 -164.93,-81.81 -13.4,-14.8 -25.63,-40.52 -36.81,-77.31 -4.11,0 -10.86,-4.12 -20.35,-12.35 -8.23,0 -12.33,-1.68 -12.44,-4.89l4.32 -2.31 14.24 0 14.23 -2.57 0 2.57c2.64,-1.8 4.74,-2.57 6.23,-2.57 -12.44,-55.57 -18.56,-96.99 -18.56,-124.4 8.22,-2.06 12.33,-4.5 12.33,-7.58l0 -14.67c-1.47,-5.02 -5.59,-7.59 -12.33,-7.59l0 -34.61c0.42,-3.34 1.68,-4.88 4.01,-4.88l16.34 0c1.47,0 2.22,0.64 2.22,2.18 2.63,-1.55 4.74,-2.18 6.11,-2.18l0 -7.59c0,-3.21 -1.36,-4.89 -4.32,-4.89l-20.35 0 -5.91 -5.28 -32.69 0c-2.74,0 -4.01,-1.66 -4.01,-4.88l0 -2.31c6.12,0 10.23,-0.91 12.34,-2.58l4.01 2.58 4 -2.58c1.48,0 2.11,0.9 2.11,2.58 17.61,0 26.36,-4.12 26.36,-12.35 1.37,-6.31 2.11,-13.89 2.11,-22.64l0 -2.31 -16.34 0c-2.74,0 -4.01,-1.68 -4.01,-5.28 5.28,-31.38 12.13,-62.77 20.35,-94.17l24.36 -57.37c33.22,-51.2 64.43,-76.79 93.64,-76.79 39.76,-13.38 78.46,-19.95 116.22,-19.95z"/>
  <g id="_2322782010960">
   <path class="fil1" d="M106.04 240.2c0,-24.4 6.1,-42.19 18.3,-53.37 12.2,-11.18 30.33,-16.77 54.39,-16.77 24.4,0 42.69,5.59 54.9,16.77 12.2,11.18 18.3,28.97 18.3,53.37l0 128.09 -64.56 0 0 -130.63c0,-5.42 -2.8,-8.13 -8.38,-8.13 -5.59,0 -8.39,2.71 -8.39,8.13l0 296.33c0,5.42 2.8,8.13 8.39,8.13 5.59,0 8.38,-2.71 8.38,-8.13l0 -100.13 -10.16 0 0 -49.3 74.72 0 0 147.4c0,24.9 -6.19,42.78 -18.56,53.7 -12.37,10.93 -30.58,16.44 -54.64,16.44 -24.06,0 -42.19,-5.59 -54.39,-16.69 -12.2,-11.1 -18.3,-28.89 -18.3,-53.45l0 -291.75z"/>
   <path class="fil1" d="M75.03 122.03c8.13,-6.7 16.6,-12.2 25.41,-16.44 8.81,-4.15 17.7,-7.54 26.68,-10.08 8.98,-2.46 17.88,-4.24 26.69,-5.25 8.81,-1.02 17.11,-1.53 24.9,-1.53 24.4,0 46.17,3.73 65.32,11.18 19.14,7.46 35.32,17.79 48.63,31.18 13.3,13.3 23.38,29.31 30.24,47.95 6.86,18.55 10.33,39.05 10.33,61.33l0 293.61c0,5.42 2.8,8.13 8.39,8.13 5.59,0 8.39,-2.71 8.39,-8.13l0 -364.43 64.55 0 0 362.4c0,24.56 -6.19,42.35 -18.56,53.45 -12.37,11.1 -30.41,16.69 -54.13,16.69 -24.06,0 -42.28,-5.51 -54.64,-16.52 -12.37,-11.01 -18.56,-28.72 -18.56,-53.12l0 -292.76c0,-27.45 -7.37,-48.71 -22.11,-63.79 -14.74,-15.08 -37.36,-22.62 -67.86,-22.62 -11.86,0 -22.87,1.27 -33.04,3.81 -10.16,2.54 -19.31,6.86 -27.45,12.96l-43.2 -48.03z"/>
  </g>
 </g>
</svg>
