<?xml version="1.0" encoding="UTF-8"?>
<!DOCTYPE svg PUBLIC "-//W3C//DTD SVG 1.1//EN" "http://www.w3.org/Graphics/SVG/1.1/DTD/svg11.dtd">
<!-- Creator: CorelDRAW 2021 (64-Bit) -->
<svg xmlns="http://www.w3.org/2000/svg" xml:space="preserve" width="51.555mm" height="33.683mm" version="1.1" style="shape-rendering:geometricPrecision; text-rendering:geometricPrecision; image-rendering:optimizeQuality; fill-rule:evenodd; clip-rule:evenodd"
viewBox="0 0 4977.51 3252.01"
 xmlns:xlink="http://www.w3.org/1999/xlink"
 xmlns:xodm="http://www.corel.com/coreldraw/odm/2003">
 <defs>
  <style type="text/css">
   <![CDATA[
    .fil0 {fill:black;fill-rule:nonzero}
    .fil1 {fill:#CF0060;fill-rule:nonzero}
   ]]>
  </style>
 </defs>
 <g id="Capa_x0020_1">
  <metadata id="CorelCorpID_0Corel-Layer"/>
  <g id="_2720556889744">
   <path class="fil0" d="M1943.41 2318.76c2.25,0 3.47,1.04 3.47,3.47l13.18 -3.47c107.64,0 199.68,25.65 275.78,77.13 80.6,0 120.81,9.02 120.81,26.87 50.45,40.73 89.62,84.24 117.35,131.04l0 20.27 -124.46 63.44c-23.06,13.7 -39.69,20.46 -50.26,20.46l-33.46 0c-50.44,-70.55 -96.37,-110.76 -137.63,-120.99 -13.52,-6.41 -34.83,-14.21 -63.95,-23.22 -39.7,0 -85.46,13.34 -137.64,40.04l0 3.47c24.62,0 37.1,2.25 37.1,6.76 -60.67,54.43 -91.01,96.9 -91.01,127.4 -7.11,8.5 -13.69,30.86 -19.76,67.08l-67.6 0c-4.33,0.7 -6.58,2.94 -6.58,7.11 0,2.94 3.47,6.24 10.22,9.54l56.86 0c3.47,0 9.02,28.08 16.82,84.41 11.44,45.24 35.01,85.63 70.55,120.81l-6.59 3.13 -37.09 0 0 7.11c29.81,29.12 79.04,51.31 147.86,66.91 25.31,0 62.4,-10.06 111.11,-30.34 45.07,0 79.74,-14.56 104.17,-43.68l2.94 0 0 -6.77 -33.45 0 0 -2.94c8.5,-15.25 23.06,-35.36 43.68,-60.5l40.05 0c4.85,0 44.03,20.11 117.87,60.5 46.98,0 79.56,9.89 97.42,29.99l0 3.47c-9.02,9.89 -13.69,15.43 -13.69,16.82l-23.23 -3.64c-14.56,0 -34.84,22.36 -60.5,67.08 -9.88,4.67 -27.73,7.11 -53.9,7.11l-6.59 0c-3.29,0 -6.76,3.29 -10.05,9.7l43.68 0 0 10.06c-71.42,66.39 -131.9,103.48 -181.31,111.28 -35.53,17.68 -75.92,26.35 -120.82,26.35l-70.72 0c-122.2,0 -230.88,-43.51 -326.04,-130.52 -9.37,-11.44 -26.17,-17.17 -50.27,-17.17 -7.8,2.26 -12.13,3.47 -13.17,3.47 -9.02,-3.29 -13.69,-6.76 -13.69,-10.05 0.69,-4.51 3.12,-6.58 7.11,-6.58 2.42,0 5.54,1.03 9.7,3.47l20.28 -3.47 6.58 0 0 -3.64c-40.21,-55.12 -60.32,-88.75 -60.32,-100.53l0 -3.47 33.45 0 16.64 -3.13c-26,-59.63 -40.57,-119.94 -43.51,-181.31l-43.16 0 0 -10.22 36.57 0c4.33,0 6.58,-2.09 6.58,-6.58 0,-4.68 -2.25,-7.11 -6.58,-7.11l-60.5 0c-4.51,0 -6.58,-2.09 -6.58,-6.59l0 -10.05c10.05,0 16.81,-1.04 20.28,-3.12l6.58 3.12c33.45,0 50.26,-4.51 50.26,-13.17 4.33,-63.44 22.36,-122.9 53.91,-178.37l0 -2.94c0,-4.51 -2.26,-6.76 -6.58,-6.76l-33.63 0 -7.11 -3.47c40.39,-71.07 86.14,-120.3 137.63,-147.85 0,-4.33 -2.26,-6.59 -6.59,-6.59l-67.08 0 0 -3.47c26.17,-23.39 73.15,-44.72 141.27,-63.96 36.23,-6.41 68.65,-9.7 97.42,-9.7l6.59 0c5.19,0 9.53,-1.22 13.34,-3.47zm-218.4 470.09l0 10.22 10.05 0c4.51,0 6.58,-2.42 6.58,-7.11l-6.58 -3.12 -10.05 0zm355.85 187.89l30.51 0c4.51,0.7 6.58,2.95 6.58,6.77 -28.08,24.61 -48.19,36.92 -60.32,36.92l-27.03 0 0 -6.59c8.49,0 25.31,-12.3 50.26,-37.09zm533.88 -657.98l488.46 0c3.12,0 6.41,3.29 10.22,10.05l0 117.35c0,3.12 3.47,6.41 10.22,10.22l13.7 0c5.37,0 10.05,-1.22 14.21,-3.64 11.09,3.12 16.64,6.41 16.64,10.22l0 7.11c0,4.33 -2.08,6.59 -6.58,6.59l-17.16 0 0 17.16c0,4.86 -2.43,7.11 -7.11,7.11l-237.13 0c-24.09,0 -60.66,1.22 -109.72,3.64l0 31.03c0.7,4.33 2.77,6.58 6.58,6.58l30.86 0c4.85,0.7 7.28,2.94 7.28,7.11l0 147.68 299.01 0c4.33,0.7 6.58,2.95 6.58,6.59l0 51.83c0,4.33 -12.48,7.8 -37.61,10.22l-7.11 -3.64 -20.28 3.64c-4.67,-2.42 -8.32,-3.64 -10.57,-3.64l-3.64 17.33 0 58.42 3.64 34.49 -10.22 7.12 -292.42 0c0,7.79 -7.97,12.3 -23.91,13.69l-20.81 -3.47 -6.58 0c-4.86,0.52 -7.11,2.94 -7.11,7.11l0 2.94 20.8 0 34.5 3.64 0 113.71c0,12.13 6.76,18.89 20.28,20.27 0,5.03 1.21,9.71 3.64,13.7 -2.43,4.15 -3.64,8.66 -3.64,13.69l0 3.64 327.08 0c4.33,0 7.8,11.44 10.05,34.5l51.31 0c4.86,0.69 7.12,2.94 7.12,6.58 0,4.68 -2.26,7.11 -7.12,7.11l-37.43 0 -17.34 3.64 0 130.52 -563.69 0c-2.42,0 -3.64,-1.22 -3.64,-3.64l-7.11 3.64 -20.27 0c-3.29,0 -6.93,-3.47 -10.57,-10.22l0 -7.11c0,-2.43 1.21,-3.64 3.47,-3.64l-3.47 -6.59 0 -82.67 -17.34 -3.13 -30.51 0c-4.67,0 -7.11,-2.25 -7.11,-7.11l0 -7.11c0.7,-4.33 3.12,-6.58 7.11,-6.58 38.31,-2.42 68.12,-3.47 89.44,-3.47l13.7 0 0 -6.58 -34.5 -3.64 -13.69 0c-4.86,0 -7.11,-3.47 -7.11,-10.23l3.47 -7.11c-2.26,-3.99 -3.47,-8.49 -3.47,-13.69 0,-2.94 6.93,-6.41 20.8,-10.05 2.42,-4.16 3.47,-8.84 3.47,-14.22 0,-9.88 -7.97,-15.42 -24.26,-16.81l0 -117.35 3.47 -6.58 -6.59 -3.47 -44.72 0c-4.67,0 -7.11,-2.25 -7.11,-6.58 0.7,-4.86 3.12,-7.11 7.11,-7.11l41.25 0c4.33,0 6.59,-2.43 6.59,-7.28l0 -113.19c0,-4.68 3.47,-7.11 10.57,-7.11 7.11,0 28.77,-1.04 65,-2.94l0 -209.74c0,-7.11 -12.47,-10.75 -37.61,-10.75l-7.11 0 0 -54.77 24.45 -13.7 0 -7.11c0,-4.51 -2.43,-6.58 -7.11,-6.58l-41.08 0c-4.86,0 -7.11,-2.42 -7.11,-7.28l0 -120.3 3.47 -6.58c46.1,-2.42 80.42,-3.47 103.13,-3.47zm-130.52 412.71l17.33 0c4.33,0.7 6.59,2.94 6.59,6.58l0 17.34c0,4.33 -2.26,6.58 -6.59,6.58l-17.33 0c-4.68,0 -7.11,-2.25 -7.11,-6.58l0 -17.34c1.04,-4.33 3.47,-6.58 7.11,-6.58zm123.94 381.52l31.02 0 0 -6.58 -24.44 0c-4.33,0.52 -6.58,2.77 -6.58,6.58zm371.28 3.47l0 13.69c0.52,4.86 2.94,7.11 7.11,7.11l47.67 0c0,-2.6 1.22,-6.24 3.47,-10.57 -2.25,-4.51 -3.47,-7.8 -3.47,-10.22l-54.77 0zm239.03 -797.69c4.51,0 6.58,1.04 6.58,3.47 34.5,-2.42 59.98,-3.47 76.27,-3.47l240.59 0c87.37,0 145.95,7.8 175.76,23.75 20.63,6.06 33.28,13 38.14,20.8 -2.43,4.16 -3.64,8.67 -3.64,13.86 35.88,17.17 66.91,55.12 92.91,113.71 16.3,48.71 24.44,85.45 24.44,110.06 0,8.5 -3.47,36.06 -10.22,82.86 13.69,0 20.46,2.42 20.46,7.11 -26.17,71.42 -67.43,124.29 -123.94,158.43l-51.83 20.27 0 3.64c5.37,5.03 18.03,23.58 38.14,55.29 -7.45,4.33 -13.18,6.59 -17.34,6.59l3.64 7.11 0 3.64c-41.78,1.9 -69.33,2.94 -82.86,2.94l0 3.64c0.7,4.68 3.13,7.11 7.12,7.11l85.79 0 31.03 37.61c22.71,0 37.61,11.44 44.72,34.5l0 3.47c-11.61,0 -17.33,2.42 -17.33,7.11 71.42,102.61 107.12,155.48 107.12,158.42 -9.18,1.74 -13.69,3.99 -13.69,6.77 15.94,23.91 23.91,37.78 23.91,41.59l-6.58 2.95 -172.65 0c-19.41,0 -50.26,-1.04 -92.91,-2.95 -18.37,-26.17 -27.55,-40.04 -27.55,-41.59 3.81,-2.43 9.53,-3.64 17.33,-3.64l0 -3.13c-66.73,-101.22 -100.01,-156.35 -100.01,-165.53l13.69 0 0 -7.11c-7.11,-22.71 -20.8,-33.98 -41.08,-33.98 -18.03,-23.06 -31.89,-34.5 -41.78,-34.5l-61.88 0 0 17.16c0,2.09 -1.04,3.13 -3.12,3.13l3.12 7.11 0 158.42 38.14 0c4.68,0.7 7.11,3.12 7.11,7.11 0,4.51 -2.42,6.59 -7.11,6.59l-38.14 0c0,11.61 -1.04,17.33 -3.12,17.33l3.12 7.11 0 41.08c0,5.03 -1.04,9.7 -3.12,13.69 2.08,4.51 3.12,7.97 3.12,10.75l-6.58 2.95 -141.27 0c-22.88,0 -57.55,-1.04 -103.49,-2.95l0 -82.85c0.7,-4.68 2.95,-7.11 7.12,-7.11l37.44 0 0 -10.06 -37.44 0c-4.86,0 -7.12,-2.42 -7.12,-7.11l0 -178.88 -17.33 -3.47 -68.46 0c-4.86,0 -7.12,-2.42 -7.12,-7.11l7.12 -3.64c57.19,-1.04 85.79,-3.12 85.79,-6.58 0,-7.11 2.26,-10.57 7.12,-10.57 4.33,2.25 7.79,3.47 10.05,3.47l3.64 -6.59 0 -234.52c0.7,-4.51 2.77,-6.76 6.58,-6.76l17.17 0 3.64 -20.8c-4.33,-2.26 -7.8,-3.47 -10.23,-3.47 -20.27,2.42 -31.72,3.47 -34.49,3.47 0,-18.2 -9.19,-27.39 -27.39,-27.39l0 -17.16 23.91 -13.87 0 -230.88 20.81 -13.86 0 -34.5c0.7,-4.33 2.77,-6.58 6.58,-6.58l24.45 0c7.63,0 13.52,-1.22 17.16,-3.47zm182.35 182.7c0,2.08 -1.04,3.12 -3.12,3.12 2.08,23.06 3.12,40.21 3.12,51.83l0 20.81c0,2.25 -1.04,3.47 -3.12,3.47l3.12 6.58 0 3.64c0,20.62 -9.18,31.03 -27.39,31.03l0 20.8c18.21,1.22 27.39,4.68 27.39,10.05l-3.12 0c2.08,4.51 3.12,7.8 3.12,10.23l82.68 0 0 7.11 -30.86 0 -13.69 17.16 -17.34 0 0 34.67 106.61 0c46.45,0 77.65,-11.61 93.43,-34.67 22.71,0 34.15,-7.97 34.15,-24.26l-31.03 0 -6.58 -3.13c4.33,-15.77 6.58,-29.81 6.58,-41.59l0 -27.39c0,-24.1 -20.62,-50.45 -62.05,-79.22 -5.03,-4.86 -27.91,-8.15 -68.47,-10.22l-7.11 3.12 -7.11 -3.12c-2.09,0 -3.12,1.04 -3.12,3.12 -7.97,-2.08 -12.83,-3.12 -14.22,-3.12 -19.93,2.08 -31.19,3.12 -33.97,3.12 -12.83,-2.08 -22.19,-3.12 -27.91,-3.12zm-196.04 165.02l0 3.64 6.58 0 0 -3.64 -6.58 0zm17.33 0l0 3.64 6.58 0 0 -3.64 -6.58 0zm651.05 -3.47l10.06 0 0 7.11 -10.06 0 0 -7.11zm23.75 0l10.75 0 0 7.11 -10.75 0 0 -7.11zm17.33 0l31.03 0 0 7.11 -31.03 0 0 -7.11zm-502.85 272.14l-7.11 -3.47c0,4.67 -2.08,7.11 -6.58,7.11 2.08,4.33 3.12,7.8 3.12,10.05 23.06,-1.91 40.21,-2.94 51.83,-2.94l3.47 0 6.58 2.94 14.22 -23.75c-9.02,-20.8 -14.91,-31.02 -17.17,-31.02l-31.02 0c-4.68,0 -8.32,13.69 -10.58,41.08l-6.76 0zm-103.48 13.69l0 3.64c0.7,4.68 2.94,7.11 7.11,7.11l61.88 0c4.51,0 6.59,-2.42 6.59,-7.11l0 -3.64 -75.58 0zm275.78 258.62l6.58 0c0,3.64 2.26,8.14 7.11,13.69l0 7.11c-3.12,-0.35 -7.63,-6.24 -13.69,-17.33l0 -3.47zm23.75 34.49l3.64 0 0 7.11 -3.64 0 0 -7.11zm833.22 -921.8c79.04,0 145.6,16.81 200.21,50.26 -4.16,2.09 -8.5,3.12 -13.18,3.12l0 6.58c7.97,0 39.01,21.15 92.91,63.44 13.18,0 26.52,4.51 40.05,13.18l37.09 0 16.29 3.64 0 3.47c0,4.51 -2.25,6.76 -6.58,6.76l-16.81 0c-2.09,0 -3.13,-1.21 -3.13,-3.64 -3.64,2.43 -9.18,3.64 -16.64,3.64l0 2.94c50.44,56.16 88.23,131.91 113.18,227.08l-9.7 6.58 -80.08 0 0 3.47c32.76,0 51.65,1.04 56.85,3.12 3.64,-2.08 9.19,-3.12 16.64,-3.12l6.58 0c8.84,0 13.35,21.14 13.35,63.44 0.69,4.51 2.77,6.76 6.58,6.76l33.45 0c2.08,0 3.12,0.87 3.12,2.94l7.11 -2.94 2.94 0c13.53,1.22 20.28,4.51 20.28,9.53 0,74.2 -21.15,148.9 -63.44,223.95l-6.58 3.13 -63.44 0 -13.7 10.05 -33.11 0c-4.33,0.7 -6.58,2.94 -6.58,6.58 24.44,0 36.57,1.22 36.57,3.64 -51.83,85.28 -131.91,148.55 -240.24,189.98 -52.7,13.52 -100.71,20.28 -143.7,20.28l-36.57 0c-26,0 -43.85,-2.43 -53.22,-7.11 -4.51,2.42 -7.8,3.47 -10.22,3.47 -97.76,-16.47 -174.55,-48.88 -230.01,-96.9 -42.99,-36.23 -77.49,-72.81 -103.66,-109.73 -3.64,-2.42 -7.97,-3.64 -13.17,-3.64l-29.99 0 0 -6.58 33.11 0c0,-6.76 2.26,-10.05 7.11,-10.05l43.17 0 16.81 -3.13c-34.67,-65.69 -53.55,-125.67 -57.03,-180.26l0 -10.06 3.64 -6.76c2.09,0 2.95,1.22 2.95,3.64 33.63,-2.42 58.06,-3.64 73.67,-3.64l49.75 0 0 -3.47c0,-4.33 -2.09,-6.58 -6.59,-6.58l-119.78 0c-2.77,0 -8.31,-7.8 -16.81,-23.4l-56.86 0c-4.33,0 -6.58,-2.25 -6.58,-6.58 0,-4.33 9.02,-7.8 26.87,-10.05l0 -13.35c-2.26,0 -5.73,-1.03 -10.06,-2.94 -4.5,1.91 -7.79,2.94 -10.22,2.94 -2.08,-4.33 -2.94,-7.8 -2.94,-10.05 6.41,-77.31 35.19,-154.97 86.32,-233.14 19.59,-26.69 37.44,-40.04 53.73,-40.04 28.78,0 43.17,-3.47 43.17,-10.22 -7.45,-4.33 -14.04,-6.58 -19.76,-6.58l-3.64 0 -16.64 2.94 -3.13 -6.58 3.13 -6.59c-8.84,0 -13.18,-2.08 -13.18,-6.58 16.47,-14.56 47.67,-35.7 93.43,-63.44l36.57 0c59.45,-35.53 146.3,-53.38 260.35,-53.38zm-277.16 417.05l0 6.58 20.27 13.69 0 6.58c0,4.33 -2.42,6.59 -7.11,6.59l-16.29 0 0 10.22 59.98 0c3.64,0 7.11,7.63 10.22,23.23 47.67,2.08 83.19,3.12 106.6,3.12l26.35 0 0 6.58c0,4.68 -2.25,7.11 -6.58,7.11 -3.99,-2.42 -7.28,-3.64 -9.71,-3.64 -2.25,0 -3.47,1.22 -3.47,3.64l-16.81 -3.64c-8.15,0 -39.18,1.22 -93.43,3.64l0 16.3c10.92,54.42 38.66,103.48 83.38,147.16 24.61,16.99 36.92,27.04 36.92,29.99l-6.59 3.13 -46.62 0 2.94 6.58 0 3.47 -19.75 0 0 6.58 40.21 0c39.52,11.27 66.04,16.82 79.73,16.82 12.83,0 33.98,-3.3 63.44,-10.06 0,-4.51 -2.25,-6.76 -6.58,-6.76l-16.81 0 0 -6.58 36.57 0c2.42,0 17.85,-3.29 46.8,-10.05l33.45 0c5.03,0 9.54,-1.04 13.18,-3.13 4.33,2.09 7.8,3.13 10.22,3.13 43.68,-18.72 82.51,-59.8 116.66,-123.42 13.34,-44.72 19.93,-70.21 19.93,-76.79l0 -26.87c0,-3.64 -11.09,-6.93 -33.11,-9.53l-6.58 2.94 -23.4 0c-9.01,0 -13.69,-22.19 -13.69,-66.56l-16.12 -3.47 -113.88 0 0 -6.58c33.63,-2.09 58.06,-3.12 73.67,-3.12l49.75 0 0 -3.47c-20.98,-59.29 -54.26,-104.87 -100.01,-136.6 -50.45,-31.19 -91.53,-46.8 -123.42,-46.8 -93.08,0 -168.66,47.67 -226.9,143.17 -15.6,39.35 -23.4,64.83 -23.4,76.79zm-230.02 70.03l36.58 0c4.33,0.7 6.58,2.94 6.58,6.58l-6.58 3.47 -36.58 0 0 -10.05zm820.58 13.69l-2.94 6.58 0 3.13 2.94 0c0,-4.51 2.26,-6.59 6.59,-6.59l0 -3.12 -6.59 0zm-410.29 49.75l3.47 0c4.51,0.7 6.59,2.94 6.59,6.58l0 10.22c0,4.33 -2.09,6.59 -6.59,6.59l-3.47 0c-4.5,0 -6.58,-2.26 -6.58,-6.59l0 -10.22c0.7,-4.33 2.77,-6.58 6.58,-6.58zm-390.52 36.57l20.28 0 3.12 16.82 -9.7 6.58 -10.23 0c-4.33,0 -7.63,-6.58 -10.05,-19.76l6.58 -3.64z"/>
   <g>
    <path class="fil1" d="M4348.43 659.94c0,-105.22 26.68,-181.56 80.01,-229.05 53.34,-47.49 131.88,-71.24 235.63,-71.24 103.74,0 181.92,23.75 234.53,71.24 52.6,47.49 78.9,123.83 78.9,229.05l0 1260.33c0,105.21 -26.67,181.57 -79.99,229.05 -53.34,47.48 -131.15,71.23 -233.44,71.23 -103.75,0 -182.29,-23.75 -235.63,-71.23 -53.33,-47.48 -80.01,-123.84 -80.01,-229.05l0 -1260.33zm278.38 1277.86c0,8.78 4.01,14.97 12.42,18.63 8.4,3.65 16.07,5.47 23.74,5.47 7.68,0 15.34,-1.45 23.74,-4.38 8.4,-2.93 12.43,-9.5 12.43,-19.72l0 -1297.59c0,-7.31 -4.03,-12.78 -12.43,-16.44 -8.4,-3.65 -16.07,-5.47 -23.74,-5.47 -7.68,0 -15.34,1.47 -23.74,4.38 -8.41,2.92 -12.42,8.76 -12.42,17.53l0 1297.59z"/>
    <path class="fil1" d="M3644.85 2220.55l0 -1865.29 363.85 0c87.68,0 153.81,20.09 198.38,60.28 44.57,40.18 66.84,108.49 66.84,204.93l0 458.11c0,35.07 -4.74,69.41 -14.24,103.03 -9.5,33.6 -30.32,56.26 -62.47,67.94 33.6,13.15 54.79,36.16 63.57,69.04 8.76,32.89 13.14,66.85 13.14,101.93l0 534.82c0,96.44 -22.27,164.76 -66.84,204.95 -44.57,40.17 -110.69,60.26 -198.38,60.26l-363.85 0zm278.38 -1604.45l0 528.23 37.26 0c10.22,0 18.63,-3.65 25.2,-10.96 6.57,-7.29 9.88,-16.07 9.88,-26.3l0 -455.9c0,-23.39 -11.7,-35.08 -35.08,-35.08l-37.26 0zm0 1345.8l37.26 0c23.37,0 35.08,-11.69 35.08,-35.07l0 -534.82c0,-23.37 -11.7,-35.07 -35.08,-35.07l-37.26 0 0 604.96z"/>
    <path class="fil1" d="M2941.26 2220.55l0 -1560.61c0,-105.22 26.68,-181.56 80.01,-229.05 53.34,-47.49 131.88,-71.24 235.63,-71.24 103.74,0 181.92,23.75 234.53,71.24 52.6,47.49 78.9,123.83 78.9,229.05l0 1560.61 -278.37 0 0 -863.6 -72.32 0 0 863.6 -278.38 0zm278.38 -1076.21l72.32 0 0 -490.97c0,-23.37 -12.06,-35.07 -36.17,-35.07 -24.11,0 -36.16,11.69 -36.16,35.07l0 490.97z"/>
    <path class="fil1" d="M2516.06 355.27l0 738.68c0,23.37 12.06,35.07 36.17,35.07 24.11,0 36.16,-11.69 36.16,-35.07l0 -738.68 278.37 0 0 714.56c0,154.89 -59.91,249.87 -179.72,284.94l0 865.79 -278.38 0 0 -867.97c-56.27,-19.01 -98.62,-51.16 -127.5,-96.45 -28.86,-45.3 -43.47,-107.4 -43.47,-186.31l0 -714.56 278.38 0z"/>
    <path class="fil1" d="M1146.12 2573.45c-68.67,0 -142.82,-9.5 -222.47,-28.5 -79.64,-19 -154.52,-57.71 -224.67,-116.18l186.32 -208.22c35.07,27.03 74.52,46.39 118.36,57.72 43.83,11.33 91.33,16.82 142.47,16.82 131.51,0 229.06,-32.53 292.63,-97.55 63.57,-65.02 95.34,-157.08 95.34,-275.44l0 -1261.78c0,-106.68 23.37,-184.14 70.14,-231.62 46.75,-47.5 128.59,-71.23 245.49,-71.23 116.9,0 198.36,23.73 244.39,71.23 46.03,47.48 69.05,124.58 69.05,231.24l0 1560.61 -278.37 0 0 -863.6 -72.34 0 0 561.12c0,96.44 -15.33,184.85 -45.66,265.23 -30.33,80.37 -73.8,149.4 -130.42,207.12 -56.63,57.72 -126.04,102.65 -208.6,134.8 -82.55,32.14 -176.44,48.23 -281.66,48.23zm666.33 -1429.12l72.34 0 0 -486.58c0,-20.46 -4.39,-32.52 -13.53,-36.17 -9.13,-3.66 -16.44,-5.48 -22.65,-5.48 -5.84,0 -13.51,1.82 -22.65,5.48 -9.13,3.65 -13.52,15.71 -13.52,36.17l0 486.58z"/>
    <g>
     <path class="fil1" d="M133.71 653.18c0,-105.22 26.3,-181.93 78.91,-230.15 52.6,-48.22 130.78,-72.32 234.53,-72.32 105.21,0 184.12,24.11 236.72,72.32 52.61,48.22 78.92,124.93 78.92,230.15l0 552.36 -278.38 0 0 -563.33c0,-23.37 -12.06,-35.07 -36.17,-35.07 -24.11,0 -36.17,11.69 -36.17,35.07l0 1277.86c0,23.38 12.06,35.08 36.17,35.08 24.11,0 36.17,-11.69 36.17,-35.08l0 -431.79 -43.83 0 0 -212.62 322.21 0 0 635.65c0,107.4 -26.67,184.47 -80.01,231.6 -53.34,47.12 -131.88,70.88 -235.62,70.88 -103.75,0 -181.93,-24.11 -234.53,-71.97 -52.61,-47.86 -78.91,-124.58 -78.91,-230.51l0 -1258.14z"/>
     <path class="fil1" d="M-0 143.58c35.08,-28.87 71.61,-52.61 109.6,-70.88 37.99,-17.89 76.34,-32.51 115.07,-43.48 38.73,-10.6 77.09,-18.27 115.08,-22.65 37.99,-4.37 73.79,-6.57 107.4,-6.57 105.21,0 199.1,16.08 281.66,48.22 82.56,32.15 152.33,76.72 209.69,134.44 57.35,57.36 100.82,126.4 130.42,206.78 29.58,79.99 44.56,168.4 44.56,264.48l0 1266.16c0,23.38 12.06,35.08 36.17,35.08 24.11,0 36.18,-11.69 36.18,-35.08l0 -1571.57 278.37 0 0 1562.81c0,105.93 -26.67,182.65 -80.01,230.51 -53.34,47.86 -131.15,71.97 -233.42,71.97 -103.76,0 -182.3,-23.75 -235.62,-71.23 -53.34,-47.48 -80.01,-123.84 -80.01,-229.05l0 -1262.52c0,-118.36 -31.78,-210.07 -95.35,-275.08 -63.57,-65.02 -161.11,-97.53 -292.62,-97.53 -51.14,0 -98.64,5.46 -142.48,16.43 -43.82,10.96 -83.28,29.58 -118.36,55.9l-186.32 -207.13z"/>
    </g>
   </g>
  </g>
 </g>
</svg>
