<?xml version="1.0" encoding="UTF-8"?>
<!DOCTYPE svg PUBLIC "-//W3C//DTD SVG 1.1//EN" "http://www.w3.org/Graphics/SVG/1.1/DTD/svg11.dtd">
<!-- Creator: CorelDRAW 2021 (64-Bit) -->
<svg xmlns="http://www.w3.org/2000/svg" xml:space="preserve" width="72.5233mm" height="17.6892mm" version="1.1" style="shape-rendering:geometricPrecision; text-rendering:geometricPrecision; image-rendering:optimizeQuality; fill-rule:evenodd; clip-rule:evenodd"
viewBox="0 0 7252.32 1768.92"
 xmlns:xlink="http://www.w3.org/1999/xlink"
 xmlns:xodm="http://www.corel.com/coreldraw/odm/2003">
 <defs>
  <style type="text/css">
   <![CDATA[
    .fil0 {fill:black;fill-rule:nonzero}
    .fil1 {fill:#CF0060;fill-rule:nonzero}
   ]]>
  </style>
 </defs>
 <g id="Capa_x0020_1">
  <metadata id="CorelCorpID_0Corel-Layer"/>
  <g id="_2720559552352">
   <path class="fil0" d="M3915.03 368.44c2.5,0 3.84,1.15 3.84,3.83l14.57 -3.83c119.03,0 220.82,28.37 304.97,85.3 89.14,0 133.61,9.97 133.61,29.71 55.78,45.05 99.1,93.16 129.77,144.92l0 22.43 -137.63 70.15c-25.49,15.15 -43.9,22.62 -55.59,22.62l-37 0c-55.78,-78.01 -106.57,-122.49 -152.2,-133.8 -14.95,-7.09 -38.53,-15.71 -70.73,-25.68 -43.9,0 -94.5,14.76 -152.2,44.28l0 3.83c27.22,0 41.02,2.49 41.02,7.48 -67.09,60.19 -100.64,107.15 -100.64,140.89 -7.85,9.39 -15.14,34.12 -21.85,74.18l-74.76 0c-4.79,0.77 -7.28,3.26 -7.28,7.86 0,3.26 3.83,6.9 11.31,10.54l62.87 0c3.84,0 9.97,31.06 18.6,93.36 12.65,50.03 38.72,94.69 78.01,133.6l-7.28 3.45 -41.02 0 0 7.86c32.97,32.21 87.41,56.74 163.51,73.99 27.99,0 69.01,-11.11 122.87,-33.54 49.84,0 88.18,-16.1 115.21,-48.31l3.25 0 0 -7.47 -36.99 0 0 -3.26c9.39,-16.87 25.49,-39.11 48.3,-66.9l44.28 0c5.37,0 48.69,22.24 130.35,66.9 51.95,0 87.99,10.93 107.73,33.16l0 3.84c-9.97,10.92 -15.14,17.06 -15.14,18.59l-25.69 -4.03c-16.1,0 -38.53,24.73 -66.9,74.19 -10.92,5.17 -30.67,7.86 -59.61,7.86l-7.29 0c-3.64,0 -7.47,3.64 -11.11,10.73l48.3 0 0 11.12c-78.98,73.42 -145.87,114.44 -200.51,123.06 -39.29,19.55 -83.95,29.14 -133.6,29.14l-78.21 0c-135.14,0 -255.33,-48.11 -360.57,-144.34 -10.35,-12.65 -28.94,-18.98 -55.59,-18.98 -8.62,2.49 -13.41,3.83 -14.56,3.83 -9.97,-3.64 -15.15,-7.47 -15.15,-11.11 0.77,-4.99 3.45,-7.29 7.86,-7.29 2.68,0 6.14,1.15 10.74,3.84l22.42 -3.84 7.29 0 0 -4.02c-44.47,-60.96 -66.71,-98.15 -66.71,-111.18l0 -3.84 37 0 18.4 -3.45c-28.76,-65.94 -44.86,-132.64 -48.12,-200.5l-47.73 0 0 -11.31 40.45 0c4.79,0 7.28,-2.3 7.28,-7.29 0,-5.17 -2.49,-7.86 -7.28,-7.86l-66.9 0c-4.98,0 -7.28,-2.3 -7.28,-7.28l0 -11.12c11.11,0 18.59,-1.15 22.42,-3.45l7.29 3.45c36.99,0 55.59,-4.98 55.59,-14.57 4.79,-70.15 24.73,-135.9 59.61,-197.24l0 -3.26c0,-4.99 -2.49,-7.48 -7.28,-7.48l-37.19 0 -7.86 -3.83c44.67,-78.59 95.27,-133.03 152.2,-163.51 0,-4.79 -2.49,-7.29 -7.28,-7.29l-74.19 0 0 -3.83c28.95,-25.88 80.9,-49.46 156.23,-70.73 40.06,-7.1 75.91,-10.74 107.73,-10.74l7.28 0c5.75,0 10.55,-1.34 14.76,-3.83zm-241.52 519.86l0 11.31 11.11 0c4.99,0 7.29,-2.69 7.29,-7.86l-7.29 -3.45 -11.11 0zm393.53 207.79l33.74 0c4.98,0.76 7.28,3.26 7.28,7.47 -31.05,27.22 -53.29,40.83 -66.7,40.83l-29.91 0 0 -7.28c9.4,0 27.99,-13.61 55.59,-41.02zm590.4 -727.65l540.18 0c3.45,0 7.09,3.64 11.31,11.12l0 129.77c0,3.45 3.83,7.09 11.3,11.31l15.15 0c5.94,0 11.12,-1.34 15.72,-4.03 12.26,3.45 18.4,7.1 18.4,11.31l0 7.86c0,4.8 -2.3,7.29 -7.29,7.29l-18.97 0 0 18.97c0,5.37 -2.69,7.86 -7.86,7.86l-262.23 0c-26.65,0 -67.09,1.35 -121.34,4.03l0 34.31c0.77,4.79 3.07,7.29 7.28,7.29l34.12 0c5.37,0.76 8.06,3.25 8.06,7.85l0 163.32 330.66 0c4.79,0.77 7.28,3.26 7.28,7.29l0 57.31c0,4.79 -13.8,8.63 -41.59,11.31l-7.86 -4.02 -22.43 4.02c-5.18,-2.68 -9.2,-4.02 -11.69,-4.02l-4.03 19.16 0 64.6 4.03 38.15 -11.31 7.86 -323.38 0c0,8.63 -8.82,13.61 -26.46,15.14l-23 -3.83 -7.28 0c-5.37,0.57 -7.86,3.26 -7.86,7.86l0 3.26 23 0 38.15 4.02 0 125.75c0,13.42 7.47,20.89 22.43,22.43 0,5.56 1.34,10.73 4.02,15.14 -2.68,4.6 -4.02,9.58 -4.02,15.14l0 4.03 361.71 0c4.79,0 8.63,12.65 11.12,38.15l56.74 0c5.37,0.76 7.86,3.25 7.86,7.28 0,5.18 -2.49,7.86 -7.86,7.86l-41.41 0 -19.16 4.02 0 144.35 -623.38 0c-2.68,0 -4.02,-1.35 -4.02,-4.03l-7.86 4.03 -22.43 0c-3.64,0 -7.67,-3.84 -11.69,-11.31l0 -7.86c0,-2.69 1.34,-4.03 3.83,-4.03l-3.83 -7.28 0 -91.44 -19.17 -3.45 -33.74 0c-5.17,0 -7.86,-2.49 -7.86,-7.86l0 -7.86c0.77,-4.79 3.45,-7.28 7.86,-7.28 42.37,-2.68 75.34,-3.84 98.91,-3.84l15.15 0 0 -7.28 -38.15 -4.02 -15.14 0c-5.37,0 -7.86,-3.84 -7.86,-11.31l3.83 -7.86c-2.49,-4.41 -3.83,-9.4 -3.83,-15.15 0,-3.26 7.67,-7.09 23,-11.11 2.69,-4.61 3.84,-9.78 3.84,-15.72 0,-10.93 -8.82,-17.06 -26.84,-18.6l0 -129.77 3.83 -7.28 -7.28 -3.84 -49.46 0c-5.17,0 -7.86,-2.49 -7.86,-7.28 0.77,-5.37 3.45,-7.86 7.86,-7.86l45.63 0c4.79,0 7.28,-2.68 7.28,-8.05l0 -125.17c0,-5.18 3.83,-7.86 11.69,-7.86 7.86,0 31.82,-1.15 71.89,-3.26l0 -231.95c0,-7.85 -13.81,-11.88 -41.6,-11.88l-7.86 0 0 -60.57 27.03 -15.15 0 -7.86c0,-4.98 -2.69,-7.28 -7.86,-7.28l-45.43 0c-5.37,0 -7.86,-2.68 -7.86,-8.05l0 -133.03 3.83 -7.29c50.99,-2.68 88.95,-3.83 114.06,-3.83zm-144.34 456.41l19.17 0c4.79,0.77 7.28,3.26 7.28,7.28l0 19.17c0,4.79 -2.49,7.29 -7.28,7.29l-19.17 0c-5.18,0 -7.86,-2.5 -7.86,-7.29l0 -19.17c1.15,-4.79 3.83,-7.28 7.86,-7.28zm137.05 421.9l34.32 0 0 -7.28 -27.03 0c-4.79,0.58 -7.29,3.07 -7.29,7.28zm410.6 3.84l0 15.14c0.58,5.37 3.26,7.86 7.86,7.86l52.71 0c0,-2.87 1.35,-6.9 3.84,-11.69 -2.49,-4.99 -3.84,-8.63 -3.84,-11.31l-60.57 0zm264.34 -882.15c4.98,0 7.28,1.15 7.28,3.83 38.15,-2.68 66.32,-3.83 84.34,-3.83l266.07 0c96.61,0 161.4,8.62 194.37,26.26 22.81,6.71 36.8,14.38 42.17,23 -2.68,4.6 -4.03,9.59 -4.03,15.34 39.68,18.98 74,60.95 102.75,125.75 18.02,53.86 27.03,94.5 27.03,121.72 0,9.39 -3.84,39.87 -11.31,91.62 15.14,0 22.62,2.69 22.62,7.86 -28.95,78.98 -74.57,137.44 -137.06,175.21l-57.32 22.42 0 4.03c5.95,5.56 19.94,26.07 42.18,61.15 -8.25,4.79 -14.57,7.28 -19.17,7.28l4.02 7.86 0 4.03c-46.19,2.11 -76.67,3.26 -91.62,3.26l0 4.02c0.76,5.18 3.45,7.86 7.86,7.86l94.88 0 34.31 41.6c25.11,0 41.6,12.65 49.46,38.14l0 3.84c-12.84,0 -19.17,2.68 -19.17,7.86 78.98,113.48 118.46,171.94 118.46,175.2 -10.16,1.92 -15.14,4.41 -15.14,7.48 17.64,26.45 26.45,41.78 26.45,46l-7.28 3.26 -190.92 0c-21.47,0 -55.59,-1.15 -102.75,-3.26 -20.32,-28.94 -30.48,-44.28 -30.48,-46 4.22,-2.69 10.55,-4.03 19.17,-4.03l0 -3.45c-73.8,-111.95 -110.6,-172.9 -110.6,-183.06l15.14 0 0 -7.86c-7.86,-25.11 -23,-37.57 -45.43,-37.57 -19.93,-25.5 -35.27,-38.15 -46.2,-38.15l-68.43 0 0 18.98c0,2.3 -1.15,3.45 -3.45,3.45l3.45 7.86 0 175.2 42.17 0c5.18,0.77 7.86,3.45 7.86,7.86 0,4.98 -2.68,7.28 -7.86,7.28l-42.17 0c0,12.85 -1.15,19.17 -3.45,19.17l3.45 7.86 0 45.43c0,5.56 -1.15,10.74 -3.45,15.15 2.3,4.98 3.45,8.81 3.45,11.88l-7.28 3.26 -156.23 0c-25.3,0 -63.64,-1.15 -114.44,-3.26l0 -91.63c0.77,-5.17 3.26,-7.86 7.86,-7.86l41.41 0 0 -11.11 -41.41 0c-5.36,0 -7.86,-2.69 -7.86,-7.86l0 -197.83 -19.17 -3.83 -75.71 0c-5.37,0 -7.86,-2.68 -7.86,-7.86l7.86 -4.02c63.26,-1.15 94.88,-3.45 94.88,-7.29 0,-7.86 2.5,-11.69 7.86,-11.69 4.8,2.49 8.63,3.83 11.12,3.83l4.03 -7.28 0 -259.36c0.76,-4.98 3.06,-7.47 7.28,-7.47l18.98 0 4.02 -23c-4.79,-2.5 -8.62,-3.84 -11.31,-3.84 -22.42,2.69 -35.08,3.84 -38.14,3.84 0,-20.13 -10.16,-30.29 -30.29,-30.29l0 -18.98 26.45 -15.33 0 -255.33 23.01 -15.34 0 -38.14c0.76,-4.8 3.06,-7.29 7.28,-7.29l27.03 0c8.43,0 14.95,-1.34 18.98,-3.83zm201.65 202.04c0,2.3 -1.15,3.45 -3.45,3.45 2.3,25.49 3.45,44.47 3.45,57.31l0 23.01c0,2.49 -1.15,3.83 -3.45,3.83l3.45 7.28 0 4.03c0,22.81 -10.16,34.31 -30.28,34.31l0 23c20.12,1.35 30.28,5.18 30.28,11.12l-3.45 0c2.3,4.99 3.45,8.63 3.45,11.31l91.44 0 0 7.86 -34.12 0 -15.15 18.98 -19.17 0 0 38.34 117.89 0c51.38,0 85.88,-12.85 103.32,-38.34 25.11,0 37.77,-8.82 37.77,-26.84l-34.32 0 -7.28 -3.45c4.79,-17.44 7.28,-32.97 7.28,-46l0 -30.29c0,-26.65 -22.81,-55.78 -68.62,-87.6 -5.56,-5.37 -30.86,-9.01 -75.72,-11.31l-7.86 3.45 -7.86 -3.45c-2.3,0 -3.45,1.15 -3.45,3.45 -8.81,-2.3 -14.18,-3.45 -15.72,-3.45 -22.04,2.3 -34.5,3.45 -37.57,3.45 -14.18,-2.3 -24.53,-3.45 -30.86,-3.45zm-216.8 182.49l0 4.02 7.29 0 0 -4.02 -7.29 0zm19.17 0l0 4.02 7.29 0 0 -4.02 -7.29 0zm719.98 -3.84l11.12 0 0 7.86 -11.12 0 0 -7.86zm26.26 0l11.89 0 0 7.86 -11.89 0 0 -7.86zm19.17 0l34.31 0 0 7.86 -34.31 0 0 -7.86zm-556.09 300.95l-7.85 -3.83c0,5.17 -2.3,7.86 -7.29,7.86 2.3,4.79 3.45,8.62 3.45,11.12 25.5,-2.11 44.47,-3.26 57.32,-3.26l3.83 0 7.28 3.26 15.72 -26.27c-9.96,-23 -16.48,-34.31 -18.97,-34.31l-34.32 0c-5.17,0 -9.2,15.15 -11.69,45.43l-7.48 0zm-114.43 15.15l0 4.02c0.76,5.18 3.26,7.86 7.86,7.86l68.43 0c4.98,0 7.28,-2.68 7.28,-7.86l0 -4.02 -83.57 0zm304.97 286l7.29 0c0,4.02 2.49,9 7.86,15.14l0 7.86c-3.45,-0.39 -8.44,-6.9 -15.15,-19.17l0 -3.83zm26.26 38.14l4.03 0 0 7.86 -4.03 0 0 -7.86zm921.45 -1019.4c87.41,0 161.02,18.6 221.4,55.59 -4.6,2.3 -9.39,3.45 -14.56,3.45l0 7.29c8.81,0 43.13,23.38 102.74,70.15 14.57,0 29.33,4.99 44.28,14.57l41.02 0 18.02 4.03 0 3.83c0,4.99 -2.49,7.48 -7.28,7.48l-18.6 0c-2.3,0 -3.45,-1.34 -3.45,-4.03 -4.02,2.69 -10.16,4.03 -18.4,4.03l0 3.26c55.78,62.1 97.57,145.87 125.17,251.11l-10.73 7.28 -88.56 0 0 3.84c36.23,0 57.12,1.15 62.87,3.45 4.03,-2.3 10.16,-3.45 18.4,-3.45l7.29 0c9.77,0 14.76,23.38 14.76,70.15 0.76,4.99 3.07,7.48 7.28,7.48l37 0c2.3,0 3.45,0.96 3.45,3.26l7.86 -3.26 3.26 0c14.95,1.34 22.42,4.98 22.42,10.54 0,82.05 -23.38,164.66 -70.15,247.66l-7.29 3.45 -70.16 0 -15.14 11.12 -36.61 0c-4.79,0.77 -7.29,3.26 -7.29,7.29 27.03,0 40.45,1.34 40.45,4.02 -57.31,94.31 -145.87,164.28 -265.68,210.09 -58.27,14.95 -111.37,22.43 -158.91,22.43l-40.45 0c-28.75,0 -48.49,-2.68 -58.84,-7.86 -4.99,2.68 -8.63,3.83 -11.31,3.83 -108.12,-18.21 -193.03,-54.05 -254.37,-107.15 -47.54,-40.06 -85.69,-80.51 -114.63,-121.34 -4.03,-2.68 -8.82,-4.02 -14.57,-4.02l-33.16 0 0 -7.29 36.61 0c0,-7.47 2.49,-11.12 7.86,-11.12l47.73 0 18.59 -3.45c-38.34,-72.65 -59.23,-138.97 -63.06,-199.35l0 -11.12 4.02 -7.48c2.3,0 3.26,1.35 3.26,4.03 37.19,-2.68 64.22,-4.03 81.47,-4.03l55.01 0 0 -3.83c0,-4.79 -2.3,-7.28 -7.28,-7.28l-132.46 0c-3.07,0 -9.2,-8.63 -18.59,-25.88l-62.88 0c-4.79,0 -7.28,-2.49 -7.28,-7.29 0,-4.79 9.97,-8.62 29.71,-11.11l0 -14.76c-2.49,0 -6.32,-1.15 -11.12,-3.26 -4.98,2.11 -8.62,3.26 -11.31,3.26 -2.3,-4.8 -3.25,-8.63 -3.25,-11.12 7.09,-85.49 38.91,-171.37 95.46,-257.82 21.66,-29.52 41.4,-44.28 59.42,-44.28 31.82,0 47.73,-3.84 47.73,-11.31 -8.24,-4.79 -15.53,-7.29 -21.85,-7.29l-4.03 0 -18.4 3.26 -3.45 -7.28 3.45 -7.29c-9.78,0 -14.57,-2.3 -14.57,-7.28 18.21,-16.1 52.72,-39.49 103.32,-70.16l40.45 0c65.75,-39.29 161.78,-59.04 287.91,-59.04zm-306.51 461.2l0 7.29 22.43 15.14 0 7.29c0,4.79 -2.68,7.28 -7.86,7.28l-18.02 0 0 11.31 66.33 0c4.02,0 7.86,8.43 11.31,25.69 52.71,2.3 92.01,3.45 117.89,3.45l29.13 0 0 7.28c0,5.18 -2.49,7.86 -7.28,7.86 -4.41,-2.68 -8.05,-4.03 -10.74,-4.03 -2.49,0 -3.83,1.35 -3.83,4.03l-18.59 -4.03c-9.01,0 -43.33,1.35 -103.32,4.03l0 18.02c12.07,60.19 42.74,114.44 92.2,162.74 27.22,18.79 40.83,29.91 40.83,33.16l-7.29 3.45 -51.56 0 3.26 7.29 0 3.83 -21.85 0 0 7.29 44.47 0c43.7,12.46 73.03,18.59 88.17,18.59 14.19,0 37.58,-3.64 70.16,-11.12 0,-4.98 -2.49,-7.47 -7.28,-7.47l-18.6 0 0 -7.29 40.45 0c2.68,0 19.74,-3.64 51.76,-11.12l36.99 0c5.56,0 10.55,-1.15 14.57,-3.45 4.79,2.3 8.63,3.45 11.31,3.45 48.31,-20.7 91.24,-66.13 129.01,-136.48 14.76,-49.45 22.04,-77.63 22.04,-84.92l0 -29.71c0,-4.02 -12.27,-7.66 -36.61,-10.54l-7.29 3.26 -25.87 0c-9.97,0 -15.15,-24.54 -15.15,-73.61l-17.82 -3.83 -125.94 0 0 -7.29c37.18,-2.3 64.21,-3.45 81.46,-3.45l55.02 0 0 -3.83c-23.2,-65.56 -60,-115.97 -110.61,-151.05 -55.78,-34.51 -101.21,-51.76 -136.48,-51.76 -102.93,0 -186.51,52.72 -250.92,158.34 -17.25,43.51 -25.88,71.69 -25.88,84.91zm-254.37 77.45l40.45 0c4.79,0.76 7.28,3.26 7.28,7.28l-7.28 3.83 -40.45 0 0 -11.11zm907.46 15.14l-3.26 7.28 0 3.45 3.26 0c0,-4.98 2.49,-7.28 7.28,-7.28l0 -3.45 -7.28 0zm-453.73 55.01l3.83 0c4.99,0.77 7.29,3.26 7.29,7.29l0 11.31c0,4.79 -2.3,7.28 -7.29,7.28l-3.83 0c-4.98,0 -7.28,-2.49 -7.28,-7.28l0 -11.31c0.76,-4.79 3.06,-7.29 7.28,-7.29zm-431.87 40.45l22.42 0 3.45 18.59 -10.73 7.29 -11.31 0c-4.79,0 -8.43,-7.29 -11.12,-21.85l7.29 -4.03z"/>
   <g>
    <path class="fil1" d="M2988.98 453.63c0,-72.32 18.33,-124.8 55,-157.45 36.66,-32.64 90.65,-48.96 161.96,-48.96 71.31,0 125.05,16.32 161.21,48.96 36.16,32.65 54.23,85.13 54.23,157.45l0 866.31c0,72.32 -18.33,124.8 -54.98,157.44 -36.67,32.64 -90.15,48.97 -160.46,48.97 -71.31,0 -125.3,-16.33 -161.96,-48.97 -36.67,-32.64 -55,-85.12 -55,-157.44l0 -866.31zm191.35 878.36c0,6.03 2.76,10.29 8.53,12.81 5.78,2.51 11.05,3.76 16.33,3.76 5.27,0 10.54,-0.99 16.31,-3.01 5.78,-2.01 8.55,-6.53 8.55,-13.56l0 -891.92c0,-5.02 -2.77,-8.79 -8.55,-11.3 -5.77,-2.51 -11.04,-3.77 -16.31,-3.77 -5.28,0 -10.55,1.01 -16.33,3.02 -5.77,2 -8.53,6.02 -8.53,12.05l0 891.92z"/>
    <path class="fil1" d="M2505.36 1526.35l0 -1282.15 250.1 0c60.27,0 105.72,13.81 136.35,41.44 30.63,27.62 45.95,74.58 45.95,140.86l0 314.89c0,24.11 -3.26,47.71 -9.79,70.82 -6.53,23.1 -20.84,38.67 -42.94,46.7 23.1,9.04 37.66,24.86 43.69,47.46 6.02,22.6 9.04,45.95 9.04,70.06l0 367.62c0,66.28 -15.32,113.24 -45.95,140.87 -30.63,27.61 -76.08,41.43 -136.35,41.43l-250.1 0zm191.35 -1102.85l0 363.09 25.61 0c7.03,0 12.8,-2.51 17.32,-7.54 4.52,-5.01 6.78,-11.04 6.78,-18.07l0 -313.38c0,-16.07 -8.04,-24.1 -24.1,-24.1l-25.61 0zm0 925.06l25.61 0c16.06,0 24.1,-8.04 24.1,-24.1l0 -367.62c0,-16.07 -8.04,-24.11 -24.1,-24.11l-25.61 0 0 415.83z"/>
    <path class="fil1" d="M2021.73 1526.35l0 -1072.72c0,-72.32 18.33,-124.8 55,-157.45 36.66,-32.64 90.65,-48.96 161.96,-48.96 71.31,0 125.05,16.32 161.21,48.96 36.16,32.65 54.24,85.13 54.24,157.45l0 1072.72 -191.34 0 0 -593.62 -49.72 0 0 593.62 -191.35 0zm191.35 -739.76l49.72 0 0 -337.48c0,-16.07 -8.29,-24.11 -24.86,-24.11 -16.57,0 -24.86,8.04 -24.86,24.11l0 337.48z"/>
    <path class="fil1" d="M1729.46 244.2l0 507.74c0,16.07 8.28,24.11 24.86,24.11 16.57,0 24.85,-8.04 24.85,-24.11l0 -507.74 191.34 0 0 491.17c0,106.46 -41.18,171.75 -123.53,195.86l0 595.12 -191.35 0 0 -596.62c-38.68,-13.07 -67.79,-35.17 -87.64,-66.3 -19.84,-31.14 -29.88,-73.83 -29.88,-128.06l0 -491.17 191.35 0z"/>
    <path class="fil1" d="M787.81 1768.92c-47.2,0 -98.18,-6.53 -152.93,-19.59 -54.73,-13.06 -106.21,-39.67 -154.42,-79.86l128.06 -143.12c24.11,18.58 51.23,31.89 81.36,39.67 30.13,7.79 62.78,11.56 97.93,11.56 90.39,0 157.44,-22.36 201.14,-67.05 43.69,-44.7 65.54,-107.98 65.54,-189.34l0 -867.31c0,-73.33 16.06,-126.56 48.21,-159.2 32.13,-32.65 88.39,-48.97 168.74,-48.97 80.35,0 136.35,16.32 167.99,48.97 31.64,32.64 47.46,85.63 47.46,158.95l0 1072.72 -191.34 0 0 -593.62 -49.73 0 0 385.71c0,66.28 -10.54,127.05 -31.38,182.3 -20.84,55.24 -50.72,102.69 -89.64,142.37 -38.93,39.67 -86.64,70.56 -143.39,92.66 -56.74,22.09 -121.28,33.15 -193.6,33.15zm458.01 -982.33l49.73 0 0 -334.47c0,-14.06 -3.02,-22.34 -9.29,-24.86 -6.28,-2.51 -11.31,-3.76 -15.58,-3.76 -4.01,0 -9.28,1.25 -15.56,3.76 -6.28,2.52 -9.3,10.8 -9.3,24.86l0 334.47z"/>
    <g>
     <path class="fil1" d="M91.91 448.98c0,-72.32 18.07,-125.05 54.23,-158.2 36.16,-33.14 89.9,-49.71 161.21,-49.71 72.32,0 126.56,16.57 162.72,49.71 36.16,33.15 54.24,85.88 54.24,158.2l0 379.67 -191.35 0 0 -387.21c0,-16.06 -8.28,-24.1 -24.86,-24.1 -16.57,0 -24.85,8.04 -24.85,24.1l0 878.37c0,16.07 8.28,24.11 24.85,24.11 16.58,0 24.86,-8.04 24.86,-24.11l0 -296.8 -30.13 0 0 -146.15 221.48 0 0 436.93c0,73.82 -18.33,126.8 -54.99,159.19 -36.67,32.39 -90.66,48.72 -161.97,48.72 -71.31,0 -125.05,-16.57 -161.21,-49.47 -36.16,-32.9 -54.23,-85.63 -54.23,-158.44l0 -864.81z"/>
     <path class="fil1" d="M-0 98.69c24.11,-19.84 49.22,-36.16 75.33,-48.72 26.12,-12.3 52.48,-22.34 79.1,-29.88 26.62,-7.28 52.99,-12.55 79.1,-15.57 26.11,-3.01 50.72,-4.52 73.82,-4.52 72.32,0 136.86,11.06 193.61,33.14 56.74,22.1 104.71,52.74 144.13,92.42 39.42,39.42 69.31,86.88 89.64,142.12 20.34,54.99 30.64,115.76 30.64,181.8l0 870.33c0,16.07 8.28,24.11 24.85,24.11 16.58,0 24.87,-8.04 24.87,-24.11l0 -1080.26 191.34 0 0 1074.24c0,72.81 -18.33,125.54 -54.99,158.44 -36.67,32.9 -90.15,49.47 -160.45,49.47 -71.32,0 -125.31,-16.33 -161.97,-48.96 -36.66,-32.64 -54.99,-85.13 -54.99,-157.45l0 -867.81c0,-81.36 -21.84,-144.4 -65.54,-189.09 -43.69,-44.69 -110.74,-67.04 -201.14,-67.04 -35.15,0 -67.8,3.76 -97.93,11.29 -30.12,7.54 -57.25,20.34 -81.35,38.43l-128.07 -142.38z"/>
    </g>
   </g>
  </g>
 </g>
</svg>
