<?xml version="1.0" encoding="UTF-8"?>
<!DOCTYPE svg PUBLIC "-//W3C//DTD SVG 1.1//EN" "http://www.w3.org/Graphics/SVG/1.1/DTD/svg11.dtd">
<!-- Creator: CorelDRAW 2021 (64-Bit) -->
<svg xmlns="http://www.w3.org/2000/svg" xml:space="preserve" width="34.2138mm" height="17.6892mm" version="1.1" style="shape-rendering:geometricPrecision; text-rendering:geometricPrecision; image-rendering:optimizeQuality; fill-rule:evenodd; clip-rule:evenodd"
viewBox="0 0 1614.08 834.51"
 xmlns:xlink="http://www.w3.org/1999/xlink"
 xmlns:xodm="http://www.corel.com/coreldraw/odm/2003">
 <defs>
  <style type="text/css">
   <![CDATA[
    .fil0 {fill:#CF0060;fill-rule:nonzero}
   ]]>
  </style>
 </defs>
 <g id="Capa_x0020_1">
  <metadata id="CorelCorpID_0Corel-Layer"/>
  <g id="_2720461119296">
   <path class="fil0" d="M1410.09 214.01c0,-34.12 8.65,-58.88 25.95,-74.28 17.29,-15.4 42.77,-23.1 76.41,-23.1 33.64,0 58.99,7.7 76.05,23.1 17.06,15.4 25.58,40.16 25.58,74.28l0 408.69c0,34.12 -8.65,58.88 -25.94,74.27 -17.3,15.4 -42.53,23.1 -75.7,23.1 -33.64,0 -59.11,-7.7 -76.41,-23.1 -17.3,-15.4 -25.95,-40.16 -25.95,-74.27l0 -408.69zm90.27 414.38c0,2.84 1.3,4.85 4.02,6.04 2.73,1.18 5.21,1.77 7.7,1.77 2.49,0 4.97,-0.47 7.69,-1.42 2.73,-0.95 4.03,-3.08 4.03,-6.4l0 -420.77c0,-2.37 -1.31,-4.15 -4.03,-5.33 -2.72,-1.18 -5.21,-1.78 -7.69,-1.78 -2.49,0 -4.98,0.48 -7.7,1.42 -2.72,0.94 -4.02,2.84 -4.02,5.68l0 420.77z"/>
   <path class="fil0" d="M1181.93 720.07l0 -604.87 117.99 0c28.43,0 49.87,6.52 64.32,19.55 14.45,13.03 21.68,35.18 21.68,66.45l0 148.55c0,11.37 -1.54,22.51 -4.62,33.41 -3.08,10.9 -9.83,18.24 -20.26,22.03 10.9,4.26 17.77,11.73 20.61,22.39 2.84,10.66 4.26,21.68 4.26,33.05l0 173.43c0,31.27 -7.23,53.42 -21.68,66.46 -14.45,13.03 -35.89,19.55 -64.32,19.55l-117.99 0zm90.27 -520.28l0 171.29 12.08 0c3.32,0 6.04,-1.18 8.17,-3.56 2.13,-2.36 3.2,-5.21 3.2,-8.52l0 -147.84c0,-7.58 -3.79,-11.37 -11.37,-11.37l-12.08 0zm0 436.41l12.08 0c7.58,0 11.37,-3.79 11.37,-11.37l0 -173.43c0,-7.58 -3.79,-11.37 -11.37,-11.37l-12.08 0 0 196.17z"/>
   <path class="fil0" d="M953.78 720.07l0 -506.07c0,-34.12 8.65,-58.88 25.95,-74.28 17.29,-15.4 42.77,-23.1 76.41,-23.1 33.64,0 58.99,7.7 76.05,23.1 17.06,15.4 25.59,40.16 25.59,74.28l0 506.07 -90.27 0 0 -280.05 -23.46 0 0 280.05 -90.27 0zm90.27 -348.99l23.46 0 0 -159.21c0,-7.58 -3.91,-11.37 -11.73,-11.37 -7.82,0 -11.73,3.79 -11.73,11.37l0 159.21z"/>
   <path class="fil0" d="M815.89 115.2l0 239.53c0,7.58 3.91,11.37 11.73,11.37 7.82,0 11.72,-3.79 11.72,-11.37l0 -239.53 90.27 0 0 231.72c0,50.22 -19.43,81.03 -58.28,92.4l0 280.76 -90.27 0 0 -281.46c-18.25,-6.17 -31.98,-16.59 -41.35,-31.28 -9.36,-14.69 -14.1,-34.83 -14.1,-60.41l0 -231.72 90.27 0z"/>
   <path class="fil0" d="M371.66 834.51c-22.27,0 -46.32,-3.08 -72.15,-9.24 -25.82,-6.16 -50.11,-18.71 -72.85,-37.67l60.41 -67.52c11.37,8.77 24.17,15.04 38.38,18.71 14.21,3.68 29.62,5.45 46.2,5.45 42.64,0 74.27,-10.55 94.89,-31.63 20.61,-21.09 30.92,-50.94 30.92,-89.32l0 -409.16c0,-34.59 7.58,-59.71 22.74,-75.1 15.16,-15.4 41.7,-23.1 79.61,-23.1 37.91,0 64.32,7.7 79.25,23.1 14.93,15.4 22.39,40.4 22.39,74.99l0 506.07 -90.27 0 0 -280.05 -23.46 0 0 181.96c0,31.27 -4.97,59.94 -14.8,86 -9.83,26.06 -23.93,48.45 -42.29,67.16 -18.37,18.71 -40.87,33.29 -67.65,43.71 -26.77,10.42 -57.22,15.64 -91.33,15.64zm216.07 -463.43l23.46 0 0 -157.79c0,-6.63 -1.42,-10.54 -4.38,-11.73 -2.96,-1.18 -5.34,-1.77 -7.35,-1.77 -1.89,0 -4.38,0.59 -7.34,1.77 -2.96,1.19 -4.39,5.1 -4.39,11.73l0 157.79z"/>
   <g>
    <path class="fil0" d="M43.36 211.81c0,-34.12 8.52,-58.99 25.58,-74.63 17.06,-15.63 42.41,-23.45 76.05,-23.45 34.12,0 59.71,7.82 76.77,23.45 17.06,15.64 25.59,40.51 25.59,74.63l0 179.11 -90.27 0 0 -182.67c0,-7.58 -3.91,-11.37 -11.73,-11.37 -7.82,0 -11.72,3.79 -11.72,11.37l0 414.38c0,7.58 3.91,11.37 11.72,11.37 7.82,0 11.73,-3.79 11.73,-11.37l0 -140.02 -14.21 0 0 -68.95 104.49 0 0 206.13c0,34.83 -8.65,59.82 -25.94,75.1 -17.3,15.28 -42.77,22.98 -76.41,22.98 -33.64,0 -58.99,-7.82 -76.05,-23.34 -17.06,-15.52 -25.58,-40.4 -25.58,-74.75l0 -407.98z"/>
    <path class="fil0" d="M-0 46.56c11.37,-9.36 23.22,-17.06 35.54,-22.98 12.32,-5.8 24.76,-10.54 37.32,-14.1 12.56,-3.43 25,-5.92 37.32,-7.35 12.32,-1.42 23.93,-2.13 34.83,-2.13 34.12,0 64.57,5.22 91.34,15.63 26.77,10.43 49.4,24.88 68,43.6 18.6,18.6 32.7,40.99 42.29,67.05 9.6,25.94 14.45,54.61 14.45,85.77l0 410.59c0,7.58 3.91,11.37 11.72,11.37 7.82,0 11.73,-3.79 11.73,-11.37l0 -509.63 90.27 0 0 506.79c0,34.35 -8.65,59.23 -25.94,74.75 -17.3,15.52 -42.53,23.34 -75.69,23.34 -33.65,0 -59.12,-7.7 -76.41,-23.1 -17.29,-15.4 -25.94,-40.16 -25.94,-74.28l0 -409.4c0,-38.38 -10.3,-68.12 -30.92,-89.21 -20.61,-21.08 -52.24,-31.63 -94.89,-31.63 -16.58,0 -31.99,1.77 -46.2,5.33 -14.21,3.56 -27.01,9.6 -38.38,18.13l-60.42 -67.17z"/>
   </g>
  </g>
 </g>
</svg>
